<?xml version="1.0" standalone="no"?><!DOCTYPE svg PUBLIC "-//W3C//DTD SVG 1.1//EN" "http://www.w3.org/Graphics/SVG/1.1/DTD/svg11.dtd"><svg t="1782455163777" class="icon" viewBox="0 0 1237 1024" version="1.1" xmlns="http://www.w3.org/2000/svg" p-id="2705" width="19.328125" height="16" xmlns:xlink="http://www.w3.org/1999/xlink"><path d="M1176.156076 563.166989l52.475201-413.688469L852.232968 6.651097 400.753063 222.286028 7.409127 56.167538l54.920457 432.810374-1.039234 8.558397-0.770255-0.110037-6.24763 40.151109 2.249635 0.33011L9.597631 932.058361l167.964659 31.494902v0.256752l7.751462 1.222628 242.251546 45.445089 426.281539-81.194737 376.214915 86.806601zM854.091363 50.824653l330.182964 125.270483-22.960957 180.875612-332.383695-84.055687 20.442343-219.889677z m-42.278482 438.972419l-1.540512-15.270626 17.26351-185.839482 330.85541 83.713351 1.931752-7.580294-20.894715 164.516846-320.585333-40.603481z m-40.261146 6.113141l-199.948612 30.162237a158.8194 158.8194 0 0 0-56.167538-75.350574c26.176469-41.789431 49.797645-122.678511 55.751845-144.025599l216.405186-27.924827-18.168254 195.620507zM422.576975 705.163025A126.737636 126.737636 0 1 1 549.326838 578.425389a126.872126 126.872126 0 0 1-126.762089 126.688731zM806.726747 73.479953L789.133128 262.865057l-0.281205-0.061131-230.123074 29.636507-1.38157 5.073907c-0.281204 1.100365-26.971177 99.717554-55.103852 144.575781a156.704253 156.704253 0 0 0-60.544547-20.540153l-18.657306-164.908088zM400.899778 421.928982a158.403706 158.403706 0 0 0-128.901688 108.31263l-170.507725-26.408768 1.809489-15.001648-18.168254-143.13308c56.5221-3.753468 98.898393-22.141796 126.077417-54.94491a153.207536 153.207536 0 0 0 32.888698-90.474485l138.328151 58.417174zM56.632137 121.064642l171.889295 72.587434a140.871218 140.871218 0 0 1-29.343076 87.100031c-24.452563 29.52647-63.466628 46.056403-116.002961 49.3575z m-2.212957 778.092795L96.709888 544.204026l168.160279 26.066433c-0.122263 2.702008-0.391241 5.367338-0.391241 8.106025a157.132173 157.132173 0 0 0 34.233589 97.92029l-87.33233 70.142178-27.52136 176.975428z m144.808081 27.142346l26.653294-171.449149 83.138716-66.731046a157.560093 157.560093 0 0 0 98.556057 47.584689l-23.682308 225.232562z m228.276906 42.791986l-3.557848-0.672446 24.66041-234.292237a158.232538 158.232538 0 0 0 132.043843-155.787281c0-4.230293-0.317883-8.375003-0.647993-12.531939l195.461566-29.465339 16.297634 166.717578c-85.742914 4.022447-149.833083 30.394536-190.179813 79.07959-47.034506 56.815531-49.247463 127.654608-46.826659 162.695131z m142.961912-27.252382c-1.895074-33.24326 0.868066-98.507152 43.268811-149.698594 37.510232-45.3106 98.067006-69.77539 179.579626-73.467727l16.945627 173.258639 40.44454-3.973542-34.979392-357.679872 3.533395-0.537956 315.156864 39.91881 0.770256-6.113141 47.621367 399.933901-203.787663-47.022279 7.812594-0.819161-25.858586-250.944432 131.505886 15.612961 1.833942-15.564056-150.9579-17.948182 27.643623 267.75557-116.357524-26.89782z m-70.508967-363.499582a77.380137 77.380137 0 1 1-77.380137-77.380137 77.367911 77.367911 0 0 1 77.367911 77.429042z" p-id="2706"></path></svg>