<?xml version="1.0" standalone="no"?><!DOCTYPE svg PUBLIC "-//W3C//DTD SVG 1.1//EN" "http://www.w3.org/Graphics/SVG/1.1/DTD/svg11.dtd"><svg t="1786343663575" class="icon" viewBox="0 0 1024 1024" version="1.1" xmlns="http://www.w3.org/2000/svg" p-id="1716" xmlns:xlink="http://www.w3.org/1999/xlink" width="16" height="16"><path d="M491.093333 46.08a42.666667 42.666667 0 0 1 40.704-0.341333l390.144 208.554666a42.666667 42.666667 0 0 1 22.528 37.546667v432.469333a42.666667 42.666667 0 0 1-21.76 37.205334l-390.144 219.221333a42.666667 42.666667 0 0 1-42.24-0.341333L112.469333 761.173333a42.666667 42.666667 0 0 1-21.333333-36.864V291.84a42.666667 42.666667 0 0 1 22.101333-37.376L491.093333 45.994667zM512 131.84L218.624 293.802667 512.085333 473.6l302.933334-179.797333L512 131.925333z m347.136 234.922667l-304.810667 180.906666v322.901334l304.810667-171.349334V366.933333z m-390.144 502.613333V547.328l-292.522667-179.2V699.733333l292.522667 169.728z" p-id="1717"></path></svg>