<?xml version="1.0" standalone="no"?><!DOCTYPE svg PUBLIC "-//W3C//DTD SVG 1.1//EN" "http://www.w3.org/Graphics/SVG/1.1/DTD/svg11.dtd"><svg t="1782464032897" class="icon" viewBox="0 0 1024 1024" version="1.1" xmlns="http://www.w3.org/2000/svg" p-id="4579" xmlns:xlink="http://www.w3.org/1999/xlink" width="16" height="16"><path d="M789.982 374.374v-87.927L562.244 10.65H63.078v995.055h726.904V833.673h191.147V374.374H789.982z m-631.33-268.151h359.902l175.855 214.63v53.521H158.652V106.223z m383.385 561.971v45.875H398.95V487.424h54.614V668.74h88.473z m-258.867 3.277c8.192 0 16.93-2.185 21.845-6.008v-36.59h-36.044V584.09h84.65v105.95c-15.838 15.291-43.69 27.852-75.912 27.852-63.352 0-112.504-39.867-112.504-116.326 0-75.913 50.79-119.057 111.412-119.057 33.314 0 56.797 14.2 72.635 29.491l-28.945 34.953c-10.922-9.83-22.937-17.477-42.052-17.477-33.314 0-57.89 26.215-57.89 70.451 0.546 45.33 20.753 71.544 62.805 71.544zM694.41 910.13H158.652v-76.458h535.757v76.458z m4.915-377.924H637.61v181.862h-54.614V532.207H521.83v-45.33h177.494v45.33z m180.224 0h-90.112v49.698h77.55v45.33h-77.55v86.834h-54.614V487.424h144.726v44.783z" p-id="4580"></path></svg>