<?xml version="1.0" standalone="no"?><!DOCTYPE svg PUBLIC "-//W3C//DTD SVG 1.1//EN" "http://www.w3.org/Graphics/SVG/1.1/DTD/svg11.dtd"><svg t="1777628465740" class="icon" viewBox="0 0 1024 1024" version="1.1" xmlns="http://www.w3.org/2000/svg" p-id="6052" xmlns:xlink="http://www.w3.org/1999/xlink" width="200" height="200"><path d="M922.507633 64.042886v895.914228H101.386346V64.042886h821.121287m9.148983-64.042886H92.237362A54.893902 54.893902 0 0 0 37.34346 54.893902v914.212196a54.893902 54.893902 0 0 0 54.893902 54.893902h839.419254a54.893902 54.893902 0 0 0 54.893903-54.893902V54.893902a54.893902 54.893902 0 0 0-54.893903-54.893902z" p-id="6053"></path><path d="M818.094856 456.877373v402.555283H317.416724v-402.555283h500.678132m0-54.893902H317.416724a54.893902 54.893902 0 0 0-54.893903 54.893902v402.555283a54.893902 54.893902 0 0 0 54.893903 54.893902h500.678132a54.893902 54.893902 0 0 0 54.893902-54.893902v-402.555283a54.893902 54.893902 0 0 0-54.893902-54.893902z" p-id="6054"></path></svg>